<?xml version="1.0" encoding="utf-8"?>
<!-- Generator: Adobe Illustrator 14.0.0, SVG Export Plug-In . SVG Version: 6.00 Build 43363)  -->
<!DOCTYPE svg PUBLIC "-//W3C//DTD SVG 1.1//EN" "http://www.w3.org/Graphics/SVG/1.1/DTD/svg11.dtd">
<svg version="1.1" id="Layer_1" xmlns="http://www.w3.org/2000/svg" xmlns:xlink="http://www.w3.org/1999/xlink" x="0px" y="0px"
	 width="300px" height="250px" viewBox="0 0 300 250" enable-background="new 0 0 300 250" xml:space="preserve">
<g>
	<g>
		<polygon fill-rule="evenodd" clip-rule="evenodd" fill="#FFFFFF" fill-opacity="0.1" points="274.604,116.996 274.772,129.057 
			150.146,125.107 150.146,125.107 		"/>
		<polygon fill-rule="evenodd" clip-rule="evenodd" fill="#FFFFFF" fill-opacity="0.1" points="270.895,93.422 273.364,105.229 
			150.146,125.107 150.146,125.107 		"/>
		<polygon fill-rule="evenodd" clip-rule="evenodd" fill="#FFFFFF" fill-opacity="0.1" points="262.717,70.923 267.393,82.042 
			150.146,125.107 150.146,125.107 		"/>
		<polygon fill-rule="evenodd" clip-rule="evenodd" fill="#FFFFFF" fill-opacity="0.1" points="250.377,50.408 257.09,60.431 
			150.146,125.107 150.146,125.107 		"/>
		<polygon fill-rule="evenodd" clip-rule="evenodd" fill="#FFFFFF" fill-opacity="0.1" points="234.368,32.616 242.87,41.173 
			150.146,125.107 150.146,125.107 		"/>
		<polygon fill-rule="evenodd" clip-rule="evenodd" fill="#FFFFFF" fill-opacity="0.1" points="215.218,18.204 225.194,24.981 
			150.146,125.107 150.146,125.107 		"/>
		<polygon fill-rule="evenodd" clip-rule="evenodd" fill="#FFFFFF" fill-opacity="0.1" points="193.672,7.733 204.758,12.482 
			150.146,125.107 150.146,125.107 		"/>
		<polygon fill-rule="evenodd" clip-rule="evenodd" fill="#FFFFFF" fill-opacity="0.1" points="170.562,1.561 182.35,4.107 
			150.146,125.107 150.146,125.107 		"/>
		<polygon fill-rule="evenodd" clip-rule="evenodd" fill="#FFFFFF" fill-opacity="0.1" points="146.672,-0.096 158.729,0.154 
			150.146,125.107 150.146,125.107 		"/>
		<polygon fill-rule="evenodd" clip-rule="evenodd" fill="#FFFFFF" fill-opacity="0.1" points="122.914,2.856 134.8,0.801 
			150.146,125.107 150.146,125.107 		"/>
		<polygon fill-rule="evenodd" clip-rule="evenodd" fill="#FFFFFF" fill-opacity="0.1" points="100.174,10.293 111.447,6.007 
			150.146,125.107 150.146,125.107 		"/>
		<polygon fill-rule="evenodd" clip-rule="evenodd" fill="#FFFFFF" fill-opacity="0.1" points="79.255,21.907 89.503,15.549 
			150.146,125.107 150.146,125.107 		"/>
		<polygon fill-rule="evenodd" clip-rule="evenodd" fill="#FFFFFF" fill-opacity="0.1" points="60.952,37.331 69.799,29.134 
			150.146,125.107 150.146,125.107 		"/>
		<polygon fill-rule="evenodd" clip-rule="evenodd" fill="#FFFFFF" fill-opacity="0.1" points="45.887,55.935 53.007,46.199 
			150.146,125.107 150.146,125.107 		"/>
		<polygon fill-rule="evenodd" clip-rule="evenodd" fill="#FFFFFF" fill-opacity="0.1" points="34.659,77.078 39.791,66.164 
			150.146,125.107 150.146,125.107 		"/>
		<polygon fill-rule="evenodd" clip-rule="evenodd" fill="#FFFFFF" fill-opacity="0.1" points="27.689,99.998 30.644,88.306 
			150.146,125.107 150.146,125.107 		"/>
		<polygon fill-rule="evenodd" clip-rule="evenodd" fill="#FFFFFF" fill-opacity="0.1" points="25.228,123.792 25.896,111.75 
			150.146,125.107 150.146,125.107 		"/>
	</g>
	<g>
		<polygon fill-rule="evenodd" clip-rule="evenodd" fill="#FFFFFF" fill-opacity="0.1" points="26.898,144.023 25.655,132.027 
			150.14,124.875 150.14,124.875 		"/>
		<polygon fill-rule="evenodd" clip-rule="evenodd" fill="#FFFFFF" fill-opacity="0.1" points="32.688,167.174 29.18,155.635 
			150.14,124.875 150.14,124.875 		"/>
		<polygon fill-rule="evenodd" clip-rule="evenodd" fill="#FFFFFF" fill-opacity="0.1" points="42.837,188.857 37.188,178.197 
			150.14,124.875 150.14,124.875 		"/>
		<polygon fill-rule="evenodd" clip-rule="evenodd" fill="#FFFFFF" fill-opacity="0.1" points="56.951,208.193 49.374,198.807 
			150.14,124.875 150.14,124.875 		"/>
		<polygon fill-rule="evenodd" clip-rule="evenodd" fill="#FFFFFF" fill-opacity="0.1" points="74.479,224.49 65.251,216.725 
			150.14,124.875 150.14,124.875 		"/>
		<polygon fill-rule="evenodd" clip-rule="evenodd" fill="#FFFFFF" fill-opacity="0.1" points="94.836,237.145 84.295,231.279 
			150.14,124.875 150.14,124.875 		"/>
		<polygon fill-rule="evenodd" clip-rule="evenodd" fill="#FFFFFF" fill-opacity="0.1" points="117.227,245.654 105.764,241.91 
			150.14,124.875 150.14,124.875 		"/>
		<polygon fill-rule="evenodd" clip-rule="evenodd" fill="#FFFFFF" fill-opacity="0.1" points="140.796,249.746 128.826,248.26 
			150.14,124.875 150.14,124.875 		"/>
		<polygon fill-rule="evenodd" clip-rule="evenodd" fill="#FFFFFF" fill-opacity="0.1" points="164.737,249.271 152.706,250.096 
			150.14,124.875 150.14,124.875 		"/>
		<polygon fill-rule="evenodd" clip-rule="evenodd" fill="#FFFFFF" fill-opacity="0.1" points="188.138,244.219 176.482,247.324 
			150.14,124.875 150.14,124.875 		"/>
		<polygon fill-rule="evenodd" clip-rule="evenodd" fill="#FFFFFF" fill-opacity="0.1" points="210.127,234.787 199.28,240.061 
			150.14,124.875 150.14,124.875 		"/>
		<polygon fill-rule="evenodd" clip-rule="evenodd" fill="#FFFFFF" fill-opacity="0.1" points="229.93,221.359 220.288,228.604 
			150.14,124.875 150.14,124.875 		"/>
		<polygon fill-rule="evenodd" clip-rule="evenodd" fill="#FFFFFF" fill-opacity="0.1" points="246.787,204.369 238.706,213.32 
			150.14,124.875 150.14,124.875 		"/>
		<polygon fill-rule="evenodd" clip-rule="evenodd" fill="#FFFFFF" fill-opacity="0.1" points="260.139,184.5 253.914,194.828 
			150.14,124.875 150.14,124.875 		"/>
		<polygon fill-rule="evenodd" clip-rule="evenodd" fill="#FFFFFF" fill-opacity="0.1" points="269.439,162.441 265.299,173.768 
			150.14,124.875 150.14,124.875 		"/>
		<polygon fill-rule="evenodd" clip-rule="evenodd" fill="#FFFFFF" fill-opacity="0.1" points="274.345,138.992 272.443,150.9 
			150.14,124.875 150.14,124.875 		"/>
	</g>
</g>
</svg>
